<?xml version="1.0" encoding="utf-8"?>
<!-- Generator: Adobe Illustrator 23.0.3, SVG Export Plug-In . SVG Version: 6.00 Build 0)  -->
<svg version="1.1" id="Layer_1" xmlns="http://www.w3.org/2000/svg" xmlns:xlink="http://www.w3.org/1999/xlink" x="0px" y="0px"
	 viewBox="0 0 68.7 52.1" style="enable-background:new 0 0 68.7 52.1;" xml:space="preserve">
<style type="text/css">
	.st0{fill:#666666;}
	.st1{fill:#FFCC33;}
</style>
<title>features-icon-1</title>
<path class="st0" d="M3.5,0h61.8c1.7-0.1,3.3,1.2,3.4,2.9v46.3c-0.2,1.7-1.7,3-3.4,2.9H11c-1.9,0-10.9-7.3-10.9-8.9V2.9
	C0.2,1.2,1.8-0.1,3.5,0z M34.6,25.1l-22-15.8l-4.4,4.4l26.5,19l26-19l-4.5-4.4L34.6,25.1L34.6,25.1L34.6,25.1z"/>
<path class="st1" d="M27.4,31.2c-5.7,0-10.8,3.1-12.8,7.7l3.2,1c2-4.6,7.9-7,13.2-5.2c4,1.3,6.7,4.6,6.7,8.4c0,4.9-4.6,8.9-10.3,8.9
	H10.3c-5.7,0-10.3-4-10.3-8.9c0-3.8,2.8-7.2,6.9-8.4C6.5,29,11.6,24.1,18.3,23.8c5.7-0.2,10.7,3,12.2,7.7
	C29.4,31.3,28.4,31.2,27.4,31.2z"/>
</svg>
